<?xml version="1.0" encoding="utf-8"?>
<!-- Generator: Adobe Illustrator 17.0.0, SVG Export Plug-In . SVG Version: 6.00 Build 0)  -->
<!DOCTYPE svg PUBLIC "-//W3C//DTD SVG 1.1//EN" "http://www.w3.org/Graphics/SVG/1.1/DTD/svg11.dtd">
<svg version="1.1" id="Layer_1" xmlns="http://www.w3.org/2000/svg" xmlns:xlink="http://www.w3.org/1999/xlink" x="0px" y="0px"
	 width="100px" height="100px" viewBox="0 0 100 100" enable-background="new 0 0 100 100" xml:space="preserve">
<g>
	<g>
		<g>
			<path fill="#5082CC" d="M96.19,99L85.323,84.655c4.889-4.05,7.958-9.893,7.958-16.39c0-12.227-10.872-22.139-24.282-22.139
				c-13.411,0-24.282,9.912-24.282,22.139c0,12.227,10.872,22.139,24.282,22.139c3.254,0,6.356-0.588,9.191-1.646L96.19,99z"/>
			<g>
				<path fill="#55936B" d="M67.555,43.117c1.876,0,3.706,0.186,5.472,0.534c2.142-3.931,3.349-8.36,3.349-13.047
					c0-16.213-14.416-29.357-32.199-29.357c-17.783,0-32.199,13.144-32.199,29.357c0,8.615,4.07,16.363,10.553,21.734L8.122,71.36
					l23.862-13.578c3.315,1.237,6.907,1.985,10.666,2.145C45.966,50.197,55.876,43.117,67.555,43.117z"/>
			</g>
			<g>
				<circle fill="#FFFFFF" cx="32.6" cy="30.069" r="5.688"/>
				<circle fill="#FFFFFF" cx="48.219" cy="30.069" r="4.173"/>
				<circle fill="#FFFFFF" cx="60.889" cy="30.069" r="2.589"/>
			</g>
		</g>
		<g>
			<circle fill="#FFFFFF" cx="76.692" cy="69.352" r="4.29"/>
			<circle fill="#FFFFFF" cx="64.913" cy="69.352" r="3.147"/>
			<circle fill="#FFFFFF" cx="55.36" cy="69.352" r="1.953"/>
		</g>
	</g>
</g>
</svg>
