<?xml version="1.0" encoding="utf-8"?>
<!-- Generator: Adobe Illustrator 17.0.0, SVG Export Plug-In . SVG Version: 6.00 Build 0)  -->
<!DOCTYPE svg PUBLIC "-//W3C//DTD SVG 1.1//EN" "http://www.w3.org/Graphics/SVG/1.1/DTD/svg11.dtd">
<svg version="1.1" id="Layer_1" xmlns="http://www.w3.org/2000/svg" xmlns:xlink="http://www.w3.org/1999/xlink" x="0px" y="0px"
	 width="100px" height="100px" viewBox="0 0 100 100" enable-background="new 0 0 100 100" xml:space="preserve">
<g>
	<g>
		<path fill="#BC280F" d="M16.033,63.148c0,0,2.197-0.659,3.876-0.572v2.087C19.908,64.663,16.559,63.4,16.033,63.148z"/>
		<linearGradient id="SVGID_1_" gradientUnits="userSpaceOnUse" x1="50.3234" y1="93.9992" x2="50.9892" y2="37.0508">
			<stop  offset="0.3765" style="stop-color:#C7D0D1"/>
			<stop  offset="0.6434" style="stop-color:#C5CECF"/>
			<stop  offset="0.7401" style="stop-color:#BEC9CA"/>
			<stop  offset="0.7712" style="stop-color:#BAC5C6"/>
		</linearGradient>
		<polygon fill="url(#SVGID_1_)" points="50.897,41.997 50.381,41.997 18.86,41.997 18.86,91.972 50.381,91.972 50.897,91.972 
			82.418,91.972 82.418,41.997 		"/>
		<g>
			<g>
				<linearGradient id="SVGID_2_" gradientUnits="userSpaceOnUse" x1="47.4643" y1="53.3377" x2="55.1373" y2="53.3377">
					<stop  offset="0" style="stop-color:#E6E6E6"/>
					<stop  offset="0.6168" style="stop-color:#EBEBEB"/>
					<stop  offset="1" style="stop-color:#F2F2F2"/>
				</linearGradient>
				<rect x="47.464" y="48.264" fill="url(#SVGID_2_)" width="7.673" height="10.147"/>
				<path fill="#F9F9F9" d="M47.245,48.045V58.63h8.111V48.045H47.245z M54.918,53.119H51.52v-4.636h3.399V53.119z M51.082,48.483
					v4.636h-3.399v-4.636H51.082z M47.683,53.557h3.399v4.636h-3.399V53.557z M51.52,58.192v-4.636h3.399v4.636H51.52z"/>
			</g>
			<g>
				<linearGradient id="SVGID_3_" gradientUnits="userSpaceOnUse" x1="66.0145" y1="53.3377" x2="73.6876" y2="53.3377">
					<stop  offset="0" style="stop-color:#E6E6E6"/>
					<stop  offset="0.6168" style="stop-color:#EBEBEB"/>
					<stop  offset="1" style="stop-color:#F2F2F2"/>
				</linearGradient>
				<rect x="66.015" y="48.264" fill="url(#SVGID_3_)" width="7.673" height="10.147"/>
				<path fill="#F9F9F9" d="M65.796,48.045V58.63h8.111V48.045H65.796z M73.469,53.119H70.07v-4.636h3.399V53.119z M69.632,48.483
					v4.636h-3.398v-4.636H69.632z M66.234,53.557h3.398v4.636h-3.398V53.557z M70.07,58.192v-4.636h3.399v4.636H70.07z"/>
			</g>
			<g>
				<linearGradient id="SVGID_4_" gradientUnits="userSpaceOnUse" x1="29.3674" y1="56.3933" x2="35.5366" y2="49.4438">
					<stop  offset="0" style="stop-color:#E6E6E6"/>
					<stop  offset="0.6168" style="stop-color:#EBEBEB"/>
					<stop  offset="1" style="stop-color:#F2F2F2"/>
				</linearGradient>
				<rect x="28.243" y="48.264" fill="url(#SVGID_4_)" width="7.673" height="10.147"/>
				<path fill="#F9F9F9" d="M28.024,48.045V58.63h8.111V48.045H28.024z M35.697,53.119h-3.399v-4.636h3.399V53.119z M31.861,48.483
					v4.636h-3.399v-4.636H31.861z M28.462,58.192v-4.636h3.399v4.636H28.462z M32.299,58.192v-4.636h3.399v4.636H32.299z"/>
			</g>
		</g>
		<path fill="#779683" d="M41.151,89.287"/>
		<path fill="#779683" d="M68.563,89.287"/>
		<path fill="#779683" d="M83.446,89.287"/>
		<line fill="#9FCEB3" x1="45.805" y1="90.815" x2="50.897" y2="90.815"/>
		<g>
			<polygon fill="#F2F2F2" points="84.67,93.129 84.67,90.815 50.897,90.815 17.124,90.815 17.124,93.129 10.805,93.129 
				10.805,95.444 50.897,95.444 90.99,95.444 90.99,93.129 			"/>
			<g>
				<rect x="10.805" y="94.817" fill="#E6E8E8" width="40.092" height="0.627"/>
				<rect x="50.897" y="92.503" fill="#E6E8E8" width="33.773" height="0.627"/>
				<rect x="50.897" y="94.817" fill="#E6E8E8" width="40.092" height="0.627"/>
				<rect x="17.124" y="92.503" fill="#E6E8E8" width="33.773" height="0.627"/>
			</g>
		</g>
		<g>
			<g>
				<g opacity="0.1">
					<polygon points="50.727,14.82 6.838,39.228 11.653,39.228 50.727,18.376 89.8,39.228 94.615,39.228 					"/>
				</g>
				<g>
					<polygon fill="#F2F2F2" points="50.727,11.877 6.838,36.285 11.653,36.285 50.727,15.433 89.8,36.285 94.615,36.285 					"/>
				</g>
			</g>
			<linearGradient id="SVGID_5_" gradientUnits="userSpaceOnUse" x1="50.4944" y1="13.2798" x2="50.7291" y2="35.7447">
				<stop  offset="0.0538" style="stop-color:#C7D0D1"/>
				<stop  offset="0.6937" style="stop-color:#C5CECF"/>
				<stop  offset="0.9256" style="stop-color:#BEC9CA"/>
				<stop  offset="1" style="stop-color:#BAC5C6"/>
			</linearGradient>
			<polygon fill="url(#SVGID_5_)" points="50.727,15.433 13.092,35.517 50.727,35.517 88.362,35.517 			"/>
		</g>
		<path fill="#779683" d="M26.268,89.287"/>
		<g>
			<g>
				<g>
					<g opacity="0.1">
						<rect x="16.86" y="43.318" width="6.748" height="45.534"/>
					</g>
					<g>
						<rect x="18.86" y="42.318" fill="#E6E6E6" width="6.748" height="45.534"/>
					</g>
				</g>
				<g>
					<g>
						<rect x="19.393" y="45.041" fill="#B9BABA" width="0.174" height="42.81"/>
					</g>
					<g>
						<rect x="19.95" y="45.041" fill="#B9BABA" width="0.174" height="42.81"/>
					</g>
					<g>
						<rect x="20.507" y="45.041" fill="#B9BABA" width="0.174" height="42.81"/>
					</g>
					<g>
						<rect x="21.065" y="45.041" fill="#B9BABA" width="0.174" height="42.81"/>
					</g>
					<g>
						<rect x="21.622" y="45.041" fill="#B9BABA" width="0.174" height="42.81"/>
					</g>
					<g>
						<rect x="22.179" y="45.041" fill="#B9BABA" width="0.174" height="42.81"/>
					</g>
					<g>
						<rect x="22.736" y="45.041" fill="#B9BABA" width="0.174" height="42.81"/>
					</g>
					<g>
						<rect x="23.293" y="45.041" fill="#B9BABA" width="0.174" height="42.81"/>
					</g>
					<g>
						<rect x="23.85" y="45.041" fill="#B9BABA" width="0.174" height="42.81"/>
					</g>
					<g>
						<rect x="24.407" y="45.041" fill="#B9BABA" width="0.174" height="42.81"/>
					</g>
					<g>
						<rect x="24.964" y="45.041" fill="#B9BABA" width="0.174" height="42.81"/>
					</g>
				</g>
				<path fill="#F2F2F2" d="M25.981,87.851h-3.637h-3.637c-0.834,0-1.51,0.747-1.51,1.667v1.297h5.148h5.147v-1.297
					C27.492,88.598,26.816,87.851,25.981,87.851z"/>
				<g>
					<g opacity="0.1">
						<path d="M17.197,43.997v1.297c0,0.92,0.676,1.667,1.51,1.667h3.637h3.637c0.834,0,1.51-0.747,1.51-1.667v-1.297h-5.148H17.197
							z"/>
					</g>
					<g>
						<path fill="#F2F2F2" d="M17.197,41.997v1.297c0,0.92,0.676,1.667,1.51,1.667h3.637h3.637c0.834,0,1.51-0.747,1.51-1.667
							v-1.297h-5.148H17.197z"/>
					</g>
				</g>
				<g>
					<g opacity="0.05">
						<path d="M25.981,85.13c0,0.398-0.323,0.722-0.722,0.722h-6.103c-0.399,0-0.722-0.323-0.722-0.722l0,0
							c0-0.399,0.323-0.722,0.722-0.722h6.103C25.658,84.408,25.981,84.731,25.981,85.13L25.981,85.13z"/>
					</g>
					<g>
						<path fill="#F2F2F2" d="M25.981,87.13c0,0.398-0.323,0.722-0.722,0.722h-6.103c-0.399,0-0.722-0.323-0.722-0.722l0,0
							c0-0.399,0.323-0.722,0.722-0.722h6.103C25.658,86.408,25.981,86.731,25.981,87.13L25.981,87.13z"/>
					</g>
				</g>
			</g>
			<g>
				<g>
					<g>
						<g opacity="0.1">
							<rect x="31.743" y="43.318" width="6.748" height="45.534"/>
						</g>
						<g>
							<rect x="33.743" y="42.318" fill="#E6E6E6" width="6.748" height="45.534"/>
						</g>
					</g>
					<g>
						<g>
							<rect x="34.276" y="45.041" fill="#B9BABA" width="0.174" height="42.81"/>
						</g>
						<g>
							<rect x="34.833" y="45.041" fill="#B9BABA" width="0.174" height="42.81"/>
						</g>
						<g>
							<rect x="35.39" y="45.041" fill="#B9BABA" width="0.174" height="42.81"/>
						</g>
						<g>
							<rect x="35.947" y="45.041" fill="#B9BABA" width="0.174" height="42.81"/>
						</g>
						<g>
							<rect x="36.505" y="45.041" fill="#B9BABA" width="0.174" height="42.81"/>
						</g>
						<g>
							<rect x="37.062" y="45.041" fill="#B9BABA" width="0.174" height="42.81"/>
						</g>
						<g>
							<rect x="37.619" y="45.041" fill="#B9BABA" width="0.174" height="42.81"/>
						</g>
						<g>
							<rect x="38.176" y="45.041" fill="#B9BABA" width="0.174" height="42.81"/>
						</g>
						<g>
							<rect x="38.733" y="45.041" fill="#B9BABA" width="0.174" height="42.81"/>
						</g>
						<g>
							<rect x="39.29" y="45.041" fill="#B9BABA" width="0.174" height="42.81"/>
						</g>
						<g>
							<rect x="39.847" y="45.041" fill="#B9BABA" width="0.174" height="42.81"/>
						</g>
					</g>
				</g>
				<path fill="#F2F2F2" d="M40.864,87.851h-3.637H33.59c-0.834,0-1.51,0.747-1.51,1.667v1.297h5.148h5.147v-1.297
					C42.375,88.598,41.699,87.851,40.864,87.851z"/>
				<g>
					<g opacity="0.1">
						<path d="M32.08,43.997v1.297c0,0.92,0.676,1.667,1.51,1.667h3.637h3.637c0.834,0,1.51-0.747,1.51-1.667v-1.297h-5.148H32.08z"
							/>
					</g>
					<g>
						<path fill="#F2F2F2" d="M32.08,41.997v1.297c0,0.92,0.676,1.667,1.51,1.667h3.637h3.637c0.834,0,1.51-0.747,1.51-1.667v-1.297
							h-5.148H32.08z"/>
					</g>
				</g>
				<g>
					<g opacity="0.05">
						<path d="M41.001,85.13c0,0.398-0.323,0.722-0.722,0.722h-6.103c-0.399,0-0.722-0.323-0.722-0.722l0,0
							c0-0.399,0.323-0.722,0.722-0.722h6.103C40.678,84.408,41.001,84.731,41.001,85.13L41.001,85.13z"/>
					</g>
					<g>
						<path fill="#F2F2F2" d="M41.001,87.13c0,0.398-0.323,0.722-0.722,0.722h-6.103c-0.399,0-0.722-0.323-0.722-0.722l0,0
							c0-0.399,0.323-0.722,0.722-0.722h6.103C40.678,86.408,41.001,86.731,41.001,87.13L41.001,87.13z"/>
					</g>
				</g>
			</g>
			<g>
				<g>
					<g>
						<g opacity="0.1">
							<rect x="59.156" y="43.318" width="6.748" height="45.534"/>
						</g>
						<g>
							<rect x="61.156" y="42.318" fill="#E6E6E6" width="6.748" height="45.534"/>
						</g>
					</g>
					<g>
						<g>
							<rect x="61.688" y="45.041" fill="#B9BABA" width="0.174" height="42.81"/>
						</g>
						<g>
							<rect x="62.246" y="45.041" fill="#B9BABA" width="0.174" height="42.81"/>
						</g>
						<g>
							<rect x="62.803" y="45.041" fill="#B9BABA" width="0.174" height="42.81"/>
						</g>
						<g>
							<rect x="63.36" y="45.041" fill="#B9BABA" width="0.174" height="42.81"/>
						</g>
						<g>
							<rect x="63.917" y="45.041" fill="#B9BABA" width="0.174" height="42.81"/>
						</g>
						<g>
							<rect x="64.474" y="45.041" fill="#B9BABA" width="0.174" height="42.81"/>
						</g>
						<g>
							<rect x="65.031" y="45.041" fill="#B9BABA" width="0.174" height="42.81"/>
						</g>
						<g>
							<rect x="65.589" y="45.041" fill="#B9BABA" width="0.174" height="42.81"/>
						</g>
						<g>
							<rect x="66.145" y="45.041" fill="#B9BABA" width="0.174" height="42.81"/>
						</g>
						<g>
							<rect x="66.703" y="45.041" fill="#B9BABA" width="0.174" height="42.81"/>
						</g>
						<g>
							<rect x="67.26" y="45.041" fill="#B9BABA" width="0.174" height="42.81"/>
						</g>
					</g>
				</g>
				<path fill="#F2F2F2" d="M68.277,87.851H64.64h-3.637c-0.834,0-1.51,0.747-1.51,1.667v1.297h5.148h5.148v-1.297
					C69.787,88.598,69.112,87.851,68.277,87.851z"/>
				<g>
					<g opacity="0.1">
						<path d="M59.492,43.997v1.297c0,0.92,0.676,1.667,1.51,1.667h3.637h3.637c0.834,0,1.51-0.747,1.51-1.667v-1.297H64.64H59.492z
							"/>
					</g>
					<g>
						<path fill="#F2F2F2" d="M59.492,41.997v1.297c0,0.92,0.676,1.667,1.51,1.667h3.637h3.637c0.834,0,1.51-0.747,1.51-1.667
							v-1.297H64.64H59.492z"/>
					</g>
				</g>
				<g>
					<g opacity="0.05">
						<path d="M68.303,85.13c0,0.398-0.323,0.722-0.722,0.722h-6.103c-0.398,0-0.722-0.323-0.722-0.722l0,0
							c0-0.399,0.323-0.722,0.722-0.722h6.103C67.98,84.408,68.303,84.731,68.303,85.13L68.303,85.13z"/>
					</g>
					<g>
						<path fill="#F2F2F2" d="M68.303,87.13c0,0.398-0.323,0.722-0.722,0.722h-6.103c-0.398,0-0.722-0.323-0.722-0.722l0,0
							c0-0.399,0.323-0.722,0.722-0.722h6.103C67.98,86.408,68.303,86.731,68.303,87.13L68.303,87.13z"/>
					</g>
				</g>
			</g>
			<g>
				<g>
					<g>
						<g opacity="0.1">
							<rect x="74.039" y="43.318" width="6.748" height="45.534"/>
						</g>
						<g>
							<rect x="76.039" y="42.318" fill="#E6E6E6" width="6.748" height="45.534"/>
						</g>
					</g>
					<g>
						<g>
							<rect x="76.572" y="45.041" fill="#B9BABA" width="0.174" height="42.81"/>
						</g>
						<g>
							<rect x="77.129" y="45.041" fill="#B9BABA" width="0.174" height="42.81"/>
						</g>
						<g>
							<rect x="77.686" y="45.041" fill="#B9BABA" width="0.174" height="42.81"/>
						</g>
						<g>
							<rect x="78.243" y="45.041" fill="#B9BABA" width="0.174" height="42.81"/>
						</g>
						<g>
							<rect x="78.8" y="45.041" fill="#B9BABA" width="0.174" height="42.81"/>
						</g>
						<g>
							<rect x="79.357" y="45.041" fill="#B9BABA" width="0.174" height="42.81"/>
						</g>
						<g>
							<rect x="79.914" y="45.041" fill="#B9BABA" width="0.174" height="42.81"/>
						</g>
						<g>
							<rect x="80.471" y="45.041" fill="#B9BABA" width="0.174" height="42.81"/>
						</g>
						<g>
							<rect x="81.029" y="45.041" fill="#B9BABA" width="0.174" height="42.81"/>
						</g>
						<g>
							<rect x="81.586" y="45.041" fill="#B9BABA" width="0.174" height="42.81"/>
						</g>
						<g>
							<rect x="82.143" y="45.041" fill="#B9BABA" width="0.174" height="42.81"/>
						</g>
					</g>
				</g>
				<path fill="#F2F2F2" d="M83.16,87.851h-3.637h-3.637c-0.834,0-1.51,0.747-1.51,1.667v1.297h5.148h5.147v-1.297
					C84.67,88.598,83.994,87.851,83.16,87.851z"/>
				<g>
					<g opacity="0.1">
						<path d="M79.523,43.997h-5.147v1.297c0,0.92,0.676,1.667,1.51,1.667h3.637h3.637c0.834,0,1.51-0.747,1.51-1.667v-1.297H79.523
							z"/>
					</g>
					<g>
						<path fill="#F2F2F2" d="M79.523,41.997h-5.147v1.297c0,0.92,0.676,1.667,1.51,1.667h3.637h3.637
							c0.834,0,1.51-0.747,1.51-1.667v-1.297H79.523z"/>
					</g>
				</g>
				<g>
					<g opacity="0.05">
						<path d="M83.186,85.13c0,0.398-0.323,0.722-0.722,0.722h-6.103c-0.399,0-0.722-0.323-0.722-0.722l0,0
							c0-0.399,0.323-0.722,0.722-0.722h6.103C82.863,84.408,83.186,84.731,83.186,85.13L83.186,85.13z"/>
					</g>
					<g>
						<path fill="#F2F2F2" d="M83.186,87.13c0,0.398-0.323,0.722-0.722,0.722h-6.103c-0.399,0-0.722-0.323-0.722-0.722l0,0
							c0-0.399,0.323-0.722,0.722-0.722h6.103C82.863,86.408,83.186,86.731,83.186,87.13L83.186,87.13z"/>
					</g>
				</g>
			</g>
		</g>
		<g>
			<g>
				<rect x="50.56" y="3.199" fill="#E6E8E8" width="0.348" height="8.869"/>
			</g>
			<path fill="#CE4A30" d="M50.886,7.797c0,0,0.623,0.354,1.78-0.244c0.482-0.249,1.039-0.504,1.551-0.565
				c0.593-0.071,1.355-0.082,2.346,0.724c0.833,0.678,2.118,0.085,2.118,0.085V6.958V3.341c0,0-1.129,0.684-2.118-0.085
				c-1.009-0.784-1.753-0.795-2.346-0.724c-0.512,0.061-1.069,0.316-1.551,0.565c-1.157,0.598-1.78,0.244-1.78,0.244V6.75"/>
			<circle fill="#E6E8E8" cx="50.734" cy="2.894" r="0.392"/>
		</g>
		<g>
			<g>
				<g opacity="0.15">
					<polygon points="53.796,37.092 53.796,37.092 15.625,36.917 15.625,39.972 53.396,39.972 53.396,40.147 91.031,40.147 
						91.031,37.092 					"/>
				</g>
				<g>
					<polygon fill="#E6E6E6" points="51.434,35.517 51.434,35.517 13.263,35.342 13.263,38.397 51.033,38.397 51.033,38.572 
						88.668,38.572 88.668,35.517 					"/>
				</g>
			</g>
			<g>
				<g>
					<rect x="13.758" y="35.517" fill="#D8D8D8" width="0.338" height="2.881"/>
				</g>
				<g>
					<rect x="14.745" y="35.517" fill="#D8D8D8" width="0.338" height="2.881"/>
				</g>
				<g>
					<rect x="15.732" y="35.517" fill="#D8D8D8" width="0.338" height="2.881"/>
				</g>
				<g>
					<rect x="16.719" y="35.517" fill="#D8D8D8" width="0.338" height="2.881"/>
				</g>
				<g>
					<rect x="17.706" y="35.517" fill="#D8D8D8" width="0.338" height="2.881"/>
				</g>
				<g>
					<rect x="18.693" y="35.517" fill="#D8D8D8" width="0.338" height="2.881"/>
				</g>
				<g>
					<rect x="19.68" y="35.517" fill="#D8D8D8" width="0.338" height="2.881"/>
				</g>
				<g>
					<rect x="20.667" y="35.517" fill="#D8D8D8" width="0.338" height="2.881"/>
				</g>
				<g>
					<rect x="21.654" y="35.517" fill="#D8D8D8" width="0.338" height="2.881"/>
				</g>
				<g>
					<rect x="22.641" y="35.517" fill="#D8D8D8" width="0.338" height="2.881"/>
				</g>
				<g>
					<rect x="23.628" y="35.517" fill="#D8D8D8" width="0.338" height="2.881"/>
				</g>
				<g>
					<rect x="24.615" y="35.517" fill="#D8D8D8" width="0.338" height="2.881"/>
				</g>
				<g>
					<rect x="25.602" y="35.517" fill="#D8D8D8" width="0.338" height="2.881"/>
				</g>
				<g>
					<rect x="26.589" y="35.517" fill="#D8D8D8" width="0.338" height="2.881"/>
				</g>
				<g>
					<rect x="27.576" y="35.517" fill="#D8D8D8" width="0.338" height="2.881"/>
				</g>
				<g>
					<rect x="28.563" y="35.517" fill="#D8D8D8" width="0.338" height="2.881"/>
				</g>
				<g>
					<rect x="29.55" y="35.517" fill="#D8D8D8" width="0.338" height="2.881"/>
				</g>
				<g>
					<rect x="30.537" y="35.517" fill="#D8D8D8" width="0.338" height="2.881"/>
				</g>
				<g>
					<rect x="31.524" y="35.517" fill="#D8D8D8" width="0.338" height="2.881"/>
				</g>
				<g>
					<rect x="32.511" y="35.517" fill="#D8D8D8" width="0.338" height="2.881"/>
				</g>
				<g>
					<rect x="33.498" y="35.517" fill="#D8D8D8" width="0.338" height="2.881"/>
				</g>
				<g>
					<rect x="34.485" y="35.517" fill="#D8D8D8" width="0.338" height="2.881"/>
				</g>
				<g>
					<rect x="35.472" y="35.517" fill="#D8D8D8" width="0.338" height="2.881"/>
				</g>
				<g>
					<rect x="36.459" y="35.517" fill="#D8D8D8" width="0.338" height="2.881"/>
				</g>
				<g>
					<rect x="37.446" y="35.517" fill="#D8D8D8" width="0.338" height="2.881"/>
				</g>
				<g>
					<rect x="38.433" y="35.517" fill="#D8D8D8" width="0.338" height="2.881"/>
				</g>
				<g>
					<rect x="39.42" y="35.517" fill="#D8D8D8" width="0.338" height="2.881"/>
				</g>
				<g>
					<rect x="40.407" y="35.517" fill="#D8D8D8" width="0.338" height="2.881"/>
				</g>
				<g>
					<rect x="41.394" y="35.517" fill="#D8D8D8" width="0.338" height="2.881"/>
				</g>
				<g>
					<rect x="42.381" y="35.517" fill="#D8D8D8" width="0.338" height="2.881"/>
				</g>
				<g>
					<rect x="43.369" y="35.517" fill="#D8D8D8" width="0.338" height="2.881"/>
				</g>
				<g>
					<rect x="44.356" y="35.517" fill="#D8D8D8" width="0.338" height="2.881"/>
				</g>
				<g>
					<rect x="45.343" y="35.517" fill="#D8D8D8" width="0.338" height="2.881"/>
				</g>
				<g>
					<rect x="46.33" y="35.517" fill="#D8D8D8" width="0.338" height="2.881"/>
				</g>
				<g>
					<rect x="47.317" y="35.517" fill="#D8D8D8" width="0.338" height="2.881"/>
				</g>
				<g>
					<rect x="48.304" y="35.517" fill="#D8D8D8" width="0.338" height="2.881"/>
				</g>
				<g>
					<rect x="49.291" y="35.517" fill="#D8D8D8" width="0.338" height="2.881"/>
				</g>
				<g>
					<rect x="50.278" y="35.517" fill="#D8D8D8" width="0.338" height="2.881"/>
				</g>
				<g>
					<rect x="51.265" y="35.517" fill="#D8D8D8" width="0.338" height="2.881"/>
				</g>
				<g>
					<rect x="52.252" y="35.517" fill="#D8D8D8" width="0.338" height="2.881"/>
				</g>
				<g>
					<rect x="53.239" y="35.517" fill="#D8D8D8" width="0.338" height="2.881"/>
				</g>
				<g>
					<rect x="54.226" y="35.517" fill="#D8D8D8" width="0.338" height="2.881"/>
				</g>
				<g>
					<rect x="55.213" y="35.517" fill="#D8D8D8" width="0.338" height="2.881"/>
				</g>
				<g>
					<rect x="56.2" y="35.517" fill="#D8D8D8" width="0.338" height="2.881"/>
				</g>
				<g>
					<rect x="57.187" y="35.517" fill="#D8D8D8" width="0.338" height="2.881"/>
				</g>
				<g>
					<rect x="58.174" y="35.517" fill="#D8D8D8" width="0.338" height="2.881"/>
				</g>
				<g>
					<rect x="59.161" y="35.517" fill="#D8D8D8" width="0.338" height="2.881"/>
				</g>
				<g>
					<rect x="60.148" y="35.517" fill="#D8D8D8" width="0.338" height="2.881"/>
				</g>
				<g>
					<rect x="61.135" y="35.517" fill="#D8D8D8" width="0.338" height="2.881"/>
				</g>
				<g>
					<rect x="62.122" y="35.517" fill="#D8D8D8" width="0.338" height="2.881"/>
				</g>
				<g>
					<rect x="63.109" y="35.517" fill="#D8D8D8" width="0.338" height="2.881"/>
				</g>
				<g>
					<rect x="64.096" y="35.517" fill="#D8D8D8" width="0.338" height="2.881"/>
				</g>
				<g>
					<rect x="65.083" y="35.517" fill="#D8D8D8" width="0.338" height="2.881"/>
				</g>
				<g>
					<rect x="66.07" y="35.517" fill="#D8D8D8" width="0.338" height="2.881"/>
				</g>
				<g>
					<rect x="67.057" y="35.517" fill="#D8D8D8" width="0.338" height="2.881"/>
				</g>
				<g>
					<rect x="68.044" y="35.517" fill="#D8D8D8" width="0.338" height="2.881"/>
				</g>
				<g>
					<rect x="69.031" y="35.517" fill="#D8D8D8" width="0.338" height="2.881"/>
				</g>
				<g>
					<rect x="70.018" y="35.517" fill="#D8D8D8" width="0.338" height="2.881"/>
				</g>
				<g>
					<rect x="71.005" y="35.517" fill="#D8D8D8" width="0.338" height="2.881"/>
				</g>
				<g>
					<rect x="71.992" y="35.517" fill="#D8D8D8" width="0.338" height="2.881"/>
				</g>
				<g>
					<rect x="72.979" y="35.517" fill="#D8D8D8" width="0.338" height="2.881"/>
				</g>
				<g>
					<rect x="73.967" y="35.517" fill="#D8D8D8" width="0.338" height="2.881"/>
				</g>
				<g>
					<rect x="74.953" y="35.517" fill="#D8D8D8" width="0.338" height="2.881"/>
				</g>
				<g>
					<rect x="75.941" y="35.517" fill="#D8D8D8" width="0.338" height="2.881"/>
				</g>
				<g>
					<rect x="76.927" y="35.517" fill="#D8D8D8" width="0.338" height="2.881"/>
				</g>
				<g>
					<rect x="77.915" y="35.517" fill="#D8D8D8" width="0.338" height="2.881"/>
				</g>
				<g>
					<rect x="78.902" y="35.517" fill="#D8D8D8" width="0.338" height="2.881"/>
				</g>
				<g>
					<rect x="79.889" y="35.517" fill="#D8D8D8" width="0.338" height="2.881"/>
				</g>
				<g>
					<rect x="80.876" y="35.517" fill="#D8D8D8" width="0.338" height="2.881"/>
				</g>
				<g>
					<rect x="81.863" y="35.517" fill="#D8D8D8" width="0.338" height="2.881"/>
				</g>
				<g>
					<rect x="82.85" y="35.517" fill="#D8D8D8" width="0.338" height="2.881"/>
				</g>
				<g>
					<rect x="83.837" y="35.517" fill="#D8D8D8" width="0.338" height="2.881"/>
				</g>
				<g>
					<rect x="84.824" y="35.517" fill="#D8D8D8" width="0.338" height="2.881"/>
				</g>
				<g>
					<rect x="85.811" y="35.517" fill="#D8D8D8" width="0.338" height="2.881"/>
				</g>
				<g>
					<rect x="86.798" y="35.517" fill="#D8D8D8" width="0.338" height="2.881"/>
				</g>
				<g>
					<rect x="87.785" y="35.517" fill="#D8D8D8" width="0.338" height="2.881"/>
				</g>
			</g>
		</g>
		<g>
			<g>
				<linearGradient id="SVGID_6_" gradientUnits="userSpaceOnUse" x1="50.9051" y1="42.9005" x2="50.8841" y2="36.1425">
					<stop  offset="0" style="stop-color:#C7D0D1"/>
					<stop  offset="0.2875" style="stop-color:#CCD4D5"/>
					<stop  offset="0.6455" style="stop-color:#DCE0E1"/>
					<stop  offset="1" style="stop-color:#F2F2F2"/>
				</linearGradient>
				<rect x="13.257" y="38.862" fill="url(#SVGID_6_)" width="75.282" height="3.055"/>
			</g>
			<g>
				<g opacity="0.1">
					<path d="M91.555,40.629c0,0.128-0.104,0.232-0.232,0.232H14.92c-0.128,0-0.232-0.104-0.232-0.232l0,0
						c0-0.128,0.104-0.232,0.232-0.232h76.403C91.451,40.397,91.555,40.501,91.555,40.629L91.555,40.629z"/>
				</g>
				<g>
					<path fill="#E6E8E8" d="M89.555,38.629c0,0.128-0.104,0.232-0.232,0.232H12.92c-0.128,0-0.232-0.104-0.232-0.232l0,0
						c0-0.128,0.104-0.232,0.232-0.232h76.403C89.451,38.397,89.555,38.501,89.555,38.629L89.555,38.629z"/>
				</g>
			</g>
			<g>
				<g opacity="0.1">
					<path d="M91.555,43.917c0,0.128-0.104,0.232-0.232,0.232H14.92c-0.128,0-0.232-0.104-0.232-0.232l0,0
						c0-0.128,0.104-0.232,0.232-0.232h76.403C91.451,43.685,91.555,43.789,91.555,43.917L91.555,43.917z"/>
				</g>
				<g>
					<path fill="#E6E8E8" d="M89.555,41.917c0,0.128-0.104,0.232-0.232,0.232H12.92c-0.128,0-0.232-0.104-0.232-0.232l0,0
						c0-0.128,0.104-0.232,0.232-0.232h76.403C89.451,41.685,89.555,41.789,89.555,41.917L89.555,41.917z"/>
				</g>
			</g>
		</g>
		
			<rect x="46.499" y="76.305" fill="#E3E5E4" stroke="#F9F9F9" stroke-width="4.3685" stroke-miterlimit="10" width="3.694" height="5.297"/>
		
			<rect x="51.561" y="76.305" fill="#E3E5E4" stroke="#F9F9F9" stroke-width="4.3685" stroke-miterlimit="10" width="3.694" height="5.297"/>
		<g>
			<g>
				<g>
					<g opacity="0.15">
						<path d="M53.401,62.568c0.057,0,0.114,0.003,0.171,0.004c0.057-0.001,0.113-0.004,0.171-0.004H53.401z"/>
						<path fill="none" stroke="#000000" stroke-width="4" stroke-miterlimit="10" d="M53.401,62.568
							c0.057,0,0.114,0.003,0.171,0.004c0.057-0.001,0.113-0.004,0.171-0.004H53.401z"/>
					</g>
					<g>
						<path fill="#87CCA3" d="M50.93,62.568c0.057,0,0.114,0.003,0.171,0.004c0.057-0.001,0.113-0.004,0.171-0.004H50.93z"/>
						<path fill="none" stroke="#F9F9F9" stroke-width="4" stroke-miterlimit="10" d="M50.93,62.568
							c0.057,0,0.114,0.003,0.171,0.004c0.057-0.001,0.113-0.004,0.171-0.004H50.93z"/>
					</g>
				</g>
				<g>
					<g opacity="0.15">
						<path d="M51.531,62.572c-3.264,0.083-5.882,2.525-5.882,5.528v22.584h5.571h6.193V68.1
							C57.413,65.097,54.795,62.655,51.531,62.572z"/>
						<path fill="none" stroke="#000000" stroke-width="4" stroke-miterlimit="10" d="M51.531,62.572
							c-3.264,0.083-5.882,2.525-5.882,5.528v22.584h5.571h6.193V68.1C57.413,65.097,54.795,62.655,51.531,62.572z"/>
					</g>
					<linearGradient id="SVGID_7_" gradientUnits="userSpaceOnUse" x1="45.219" y1="76.628" x2="56.9828" y2="76.628">
						<stop  offset="0" style="stop-color:#E6E6E6"/>
						<stop  offset="0.6168" style="stop-color:#EBEBEB"/>
						<stop  offset="1" style="stop-color:#F2F2F2"/>
					</linearGradient>
					<path fill="url(#SVGID_7_)" d="M51.101,62.572c-3.264,0.083-5.882,2.525-5.882,5.528v22.584h5.572h6.192V68.1
						C56.983,65.097,54.364,62.655,51.101,62.572z"/>
				</g>
			</g>
			<g>
				<g opacity="0.15">
					<path d="M52.245,63.015l-0.009,0l-0.009,0c-3.489,0.089-6.221,2.67-6.221,5.877v22.932h12.46V68.892
						C58.467,65.686,55.734,63.104,52.245,63.015z M52.585,63.732c1.156,0.094,2.206,0.493,3.054,1.109l-3.054,2.793L52.585,63.732z
						 M56.181,65.289c0.792,0.746,1.335,1.71,1.519,2.787h-4.567L56.181,65.289z M51.888,63.732l0,3.74l-2.514-2.979
						C50.112,64.075,50.966,63.806,51.888,63.732z M48.786,64.876l2.7,3.2h-4.714C46.993,66.787,47.728,65.662,48.786,64.876z
						 M57.77,91.127H46.703V68.892c0-0.04,0.002-0.08,0.003-0.119h5.53h0l0,0h5.531c0.001,0.04,0.003,0.079,0.003,0.119V91.127z"/>
				</g>
				<g>
					<path fill="#F9F9F9" d="M51.245,62.015l-0.009,0l-0.009,0c-3.489,0.089-6.221,2.67-6.221,5.877v22.932h12.46V67.892
						C57.467,64.686,54.734,62.104,51.245,62.015z M51.585,62.732c1.156,0.094,2.206,0.493,3.054,1.109l-3.054,2.793L51.585,62.732z
						 M55.181,64.289c0.792,0.746,1.335,1.71,1.519,2.787h-4.567L55.181,64.289z M50.888,62.732l0,3.74l-2.514-2.979
						C49.112,63.075,49.966,62.806,50.888,62.732z M47.786,63.876l2.7,3.2h-4.714C45.993,65.787,46.728,64.662,47.786,63.876z
						 M56.77,90.127H45.703V67.892c0-0.04,0.002-0.08,0.003-0.119h5.53h0l0,0h5.531c0.001,0.04,0.003,0.079,0.003,0.119V90.127z"/>
				</g>
			</g>
			<g>
				<g>
					<g opacity="0.05">
						<rect x="47.838" y="69.913" width="3.694" height="5.297"/>
					</g>
					<g>
						<rect x="46.838" y="68.913" fill="#FFFFFF" width="3.694" height="5.297"/>
					</g>
				</g>
				<g>
					<g opacity="0.05">
						<rect x="52.9" y="69.913" width="3.694" height="5.297"/>
					</g>
					<g>
						<rect x="51.9" y="68.913" fill="#FFFFFF" width="3.694" height="5.297"/>
					</g>
				</g>
				<g>
					<g opacity="0.05">
						<rect x="47.838" y="84.019" width="3.694" height="5.297"/>
					</g>
					<g>
						<rect x="46.838" y="83.019" fill="#FFFFFF" width="3.694" height="5.297"/>
					</g>
				</g>
				<g>
					<g opacity="0.05">
						<rect x="52.9" y="84.019" width="3.694" height="5.297"/>
					</g>
					<g>
						<rect x="51.9" y="83.019" fill="#FFFFFF" width="3.694" height="5.297"/>
					</g>
				</g>
			</g>
		</g>
		<path fill="#BAC5C6" d="M55.476,78.074c0,0.178-0.145,0.322-0.322,0.322l0,0c-0.178,0-0.323-0.145-0.323-0.322v-1.619
			c0-0.178,0.145-0.323,0.323-0.323l0,0c0.178,0,0.322,0.144,0.322,0.323V78.074z"/>
		<path fill="#BAC5C6" d="M56.521,77.264c0,0.067-0.055,0.122-0.122,0.122h-1.124c-0.067,0-0.122-0.054-0.122-0.122l0,0
			c0-0.067,0.054-0.122,0.122-0.122h1.124C56.466,77.142,56.521,77.197,56.521,77.264L56.521,77.264z"/>
		<g opacity="0.5">
			<path fill="#8D9899" d="M11.653,36.285c3.15-1.936,6.36-3.76,9.539-5.643c3.201-1.841,6.407-3.672,9.632-5.469
				c3.213-1.819,6.459-3.575,9.69-5.36l9.742-5.262l0.47-0.254l0.471,0.254l9.744,5.259c3.23,1.787,6.478,3.54,9.69,5.36
				c3.224,1.797,6.431,3.628,9.632,5.469c3.178,1.884,6.388,3.708,9.538,5.645c-3.363-1.538-6.665-3.189-9.999-4.78
				c-3.311-1.635-6.617-3.279-9.905-4.957c-3.3-1.656-6.564-3.378-9.847-5.066l-9.793-5.167h0.941l-9.794,5.164
				c-3.282,1.69-6.547,3.409-9.847,5.066c-3.288,1.678-6.594,3.323-9.905,4.957C18.317,33.094,15.015,34.746,11.653,36.285z"/>
		</g>
		<g>
			<g>
				<g opacity="0.15">
					<path d="M80.547,85.488c9.197-0.395,17.454-3.733,23.703-8.856c-4.041,0.117-7.826-0.485-11.204-1.609
						c0.277-2.575,0.414-5.149,0.412-7.71c-4.697,3.02-10.947,4.707-17.824,3.904C76.274,75.975,77.906,80.844,80.547,85.488z"/>
				</g>
				<g>
					<path fill="#D34A2F" d="M79.547,82.488c9.197-0.395,17.454-3.733,23.703-8.856c-4.041,0.117-7.826-0.485-11.204-1.609
						c0.277-2.575,0.414-5.149,0.412-7.71c-4.697,3.02-10.947,4.707-17.824,3.904C75.274,72.975,76.906,77.844,79.547,82.488z"/>
				</g>
			</g>
			<polyline fill="#BC280F" points="86.062,77.438 82.787,82.25 82.787,78.738 			"/>
			<g>
				<g opacity="0.15">
					<path d="M24.68,85.259c-9.488-0.332-17.927-3.847-24.146-9.18c3.577,0.128,6.954-0.323,10.017-1.212
						c-0.179-2.58-0.223-5.155-0.134-7.713c4.679,3.343,11.134,5.332,18.345,4.601C28.256,76.237,26.901,80.825,24.68,85.259z"/>
				</g>
				<g>
					<path fill="#D34A2F" d="M23.68,82.259c-9.488-0.332-17.927-3.847-24.146-9.18c3.577,0.128,6.954-0.323,10.017-1.212
						c-0.179-2.58-0.223-5.155-0.134-7.713c4.679,3.343,11.134,5.332,18.345,4.601C27.256,73.237,25.901,77.825,23.68,82.259z"/>
				</g>
			</g>
			<path fill="#BC280F" d="M85.719,63.367c0,0-1.794-0.409-3.875-0.572v2.087C81.844,64.883,85.193,63.62,85.719,63.367z"/>
			<g>
				<g opacity="0.15">
					<path d="M87.046,79.406c-21.984,9.248-47.976,9.53-70.03-0.342c0-3.981,0-9.967,0-13.948
						c22.986,9.546,46.385,9.766,69.686,0.219C86.813,70.526,87.046,75.425,87.046,79.406z"/>
				</g>
				<g>
					<g>
						<path fill="#DB5937" d="M86.062,77.438c-21.984,9.248-47.976,9.53-70.03-0.342c0-3.981,0-9.967,0-13.948
							c22.986,9.546,46.385,9.766,69.686,0.219C85.829,68.558,86.062,73.458,86.062,77.438z"/>
					</g>
				</g>
			</g>
			<path fill="none" d="M15.634,73.201c0,0,32.712,17.218,70.429,0.462"/>
			<text transform="matrix(0.9731 0.2305 -0.2305 0.9731 27.4385 77.7031)"><tspan x="0" y="0" fill="#FFFFFF" font-family="'Communist'" font-size="9.5794">M</tspan><tspan x="8.077" y="-0.071" fill="#FFFFFF" font-family="'Communist'" font-size="9.5794" rotate="-4.142">y</tspan><tspan x="12.855" y="-0.447" fill="#FFFFFF" font-family="'Communist'" font-size="9.5794" rotate="-6.42"> </tspan><tspan x="15.159" y="-0.673" fill="#FFFFFF" font-family="'Communist'" font-size="9.5794" rotate="-9.056">C</tspan><tspan x="20.989" y="-1.617" fill="#FFFFFF" font-family="'Communist'" font-size="9.5794" rotate="-12.835">o</tspan><tspan x="26.397" y="-2.893" fill="#FFFFFF" font-family="'Communist'" font-size="9.5794" rotate="-15.539">l</tspan><tspan x="28.78" y="-3.559" fill="#FFFFFF" font-family="'Communist'" font-size="9.5794" rotate="-17.204">l</tspan><tspan x="31.201" y="-4.285" fill="#FFFFFF" font-family="'Communist'" font-size="9.5794" rotate="-19.777">e</tspan><tspan x="36.061" y="-6.036" fill="#FFFFFF" font-family="'Communist'" font-size="9.5794" rotate="-23.49">g</tspan><tspan x="41.29" y="-8.329" fill="#FFFFFF" font-family="'Communist'" font-size="9.5794" rotate="-27.204">e</tspan></text>
			<polyline fill="#BC280F" points="16.033,77.096 18.86,81.909 18.86,78.396 			"/>
		</g>
	</g>
</g>
</svg>
