<?xml version="1.0" encoding="utf-8"?>
<!-- Generator: Adobe Illustrator 17.0.0, SVG Export Plug-In . SVG Version: 6.00 Build 0)  -->
<!DOCTYPE svg PUBLIC "-//W3C//DTD SVG 1.1//EN" "http://www.w3.org/Graphics/SVG/1.1/DTD/svg11.dtd">
<svg version="1.1" id="Layer_1" xmlns="http://www.w3.org/2000/svg" xmlns:xlink="http://www.w3.org/1999/xlink" x="0px" y="0px"
	 width="100px" height="100px" viewBox="0 0 100 100" enable-background="new 0 0 100 100" xml:space="preserve">
<g>
	<path fill-rule="evenodd" clip-rule="evenodd" fill="#8BA8C6" d="M50.454,97.085c25.962,0,47.136-21.174,47.136-47.136
		c0-25.962-21.174-47.137-47.136-47.137c-25.962,0-47.136,21.174-47.136,47.137C3.318,75.911,24.492,97.085,50.454,97.085z"/>
	<g>
		<g>
			<path fill-rule="evenodd" clip-rule="evenodd" fill="#FFC74F" d="M58.896,40.974l24.484-12.808l11.796,18.042l0.284,0.641
				c0.092,1.235,0.159,2.472,0.203,3.712L73.39,61.653L58.896,40.974z"/>
			<path fill-rule="evenodd" clip-rule="evenodd" fill="#FFC74F" d="M35.926,58.585l-0.331-0.24
				c-2.552,3.939,0.496,9.097,4.592,7.615c-3.021,3.699-0.532,8.913,3.272,8.404c-2.391,3.867,0.85,8.837,4.951,6.791l18.784-9.38
				c5.274-2.633,11.366-9.238,13.511-13.118c6.355-11.503-1.662-22.745-7.083-23.798c-4.226-0.821-7.078-1.995-9.91-0.629
				l-31.194,15.02C26.64,51.667,31.05,60.242,35.926,58.585z"/>
			<path fill-rule="evenodd" clip-rule="evenodd" fill="#CE6B55" d="M87.947,21.384l-15.723,7.929l14.618,29.33l10.63-5.36
				c0.077-1.102,0.119-2.213,0.119-3.334C97.589,39.209,93.995,29.31,87.947,21.384z"/>
		</g>
		<g>
			<path fill-rule="evenodd" clip-rule="evenodd" fill="#FFF8F0" d="M52.603,46.261l-20.12-18.939l-16.226,14.19l-0.447,0.54
				c-0.422,1.164-0.82,2.338-1.196,3.52l18.452,16.691L52.603,46.261z"/>
			<path fill-rule="evenodd" clip-rule="evenodd" fill="#FFF8F0" d="M69.968,69.418l0.383-0.142
				c1.395,4.482-2.933,8.625-6.476,6.094c1.91,4.377-1.892,8.726-5.419,7.21c1.259,4.368-3.202,8.281-6.599,5.202L36.302,73.683
				c-4.369-3.959-8.451-11.962-9.47-16.278c-3.016-12.791,7.737-21.453,13.24-21.004c4.291,0.35,7.354-0.011,9.712,2.068
				L75.769,61.35C80.778,65.262,74.217,72.329,69.968,69.418z"/>
			<path fill-rule="evenodd" clip-rule="evenodd" fill="#FAE1C8" d="M63.945,76.041v-0.478c0.093,0.231,0.169,0.461,0.231,0.69
				L63.945,76.041L63.945,76.041z M63.945,75.435c0.49,0.335,0.992,0.544,1.491,0.645c-0.461-0.361-0.966-0.751-1.491-1.154V75.435
				L63.945,75.435z M63.945,64.198v-0.249c1.821,1.486,4.85,3.975,6.397,5.346c-0.036-0.031-0.016,0.021,0.038,0.129
				c0.115,0.401,0.186,0.8,0.215,1.19C68.593,68.732,65.69,65.904,63.945,64.198z M52.858,77.933c0,0,3.045,2.871,5.758,5.408
				c-0.036-0.25-0.088-0.501-0.161-0.755c0.309,0.133,0.621,0.221,0.931,0.266C56.45,80.604,52.858,77.933,52.858,77.933
				L52.858,77.933z M63.945,63.949v0.249c-0.899-0.88-1.491-1.462-1.491-1.462S63.056,63.223,63.945,63.949L63.945,63.949z
				 M63.945,74.926v0.509l-0.075-0.053c0.026,0.06,0.051,0.12,0.075,0.18v0.478c-2.976-2.735-6.521-6.017-6.521-6.017
				S61.003,72.67,63.945,74.926z"/>
			<path fill-rule="evenodd" clip-rule="evenodd" fill="#623875" d="M21.87,12.47l21.046,18.968l-21.99,24.298L4.23,40.687
				C6.51,29.244,12.933,19.296,21.87,12.47z"/>
		</g>
		<path fill-rule="evenodd" clip-rule="evenodd" fill="#FFC74F" d="M50.174,73.365L50.174,73.365
			c1.282,1.503,1.183,3.893-0.402,5.063l-5.293,3.906c-1.585,1.17-3.781,1.101-5.063-0.402l0,0
			c-1.282-1.504-1.098-3.777,0.403-5.062l5.293-3.906C46.7,71.789,48.891,71.861,50.174,73.365z"/>
		<path fill-rule="evenodd" clip-rule="evenodd" fill="#FFC74F" d="M45.513,67.9L45.513,67.9c1.282,1.503,1.183,3.892-0.402,5.062
			l-5.293,3.906c-1.586,1.17-3.781,1.101-5.064-0.403l0,0c-1.282-1.503-1.098-3.777,0.403-5.062l5.293-3.906
			C42.04,66.324,44.231,66.396,45.513,67.9z"/>
		<path fill-rule="evenodd" clip-rule="evenodd" fill="#FFC74F" d="M40.852,62.435L40.852,62.435
			c1.282,1.503,1.184,3.892-0.402,5.063l-5.293,3.906c-1.586,1.17-3.781,1.101-5.064-0.402l0,0
			c-1.282-1.503-1.098-3.777,0.403-5.063l5.293-3.906C37.379,60.859,39.57,60.931,40.852,62.435z"/>
		<path fill-rule="evenodd" clip-rule="evenodd" fill="#FFC74F" d="M36.192,56.97L36.192,56.97c1.282,1.503,1.183,3.892-0.402,5.063
			l-5.293,3.905c-1.586,1.171-3.782,1.102-5.064-0.402l0,0c-1.282-1.504-1.098-3.778,0.403-5.063l5.293-3.906
			C32.719,55.394,34.91,55.467,36.192,56.97z"/>
		<path fill-rule="evenodd" clip-rule="evenodd" fill="#FFC74F" d="M45.289,36.39c1.47-0.854,4.765-1.703,8.258-2.269
			c3.493-0.567,8.776-1.032,12.838-0.514c2.514,0.321,6.141,2.425,5.886,5.349c-0.254,2.92-8.388,5.236-11.006,5.328
			c-2.05,0.012-9.092-2.178-13.745-0.193c-5.382,2.295-9.725-0.483-9.532-3.005C38.03,40.546,40.278,39.299,45.289,36.39z"/>
	</g>
</g>
</svg>
