<?xml version="1.0" encoding="utf-8"?>
<!-- Generator: Adobe Illustrator 17.0.0, SVG Export Plug-In . SVG Version: 6.00 Build 0)  -->
<!DOCTYPE svg PUBLIC "-//W3C//DTD SVG 1.1//EN" "http://www.w3.org/Graphics/SVG/1.1/DTD/svg11.dtd">
<svg version="1.1" id="Layer_1" xmlns="http://www.w3.org/2000/svg" xmlns:xlink="http://www.w3.org/1999/xlink" x="0px" y="0px"
	 width="100px" height="100px" viewBox="0 0 100 100" enable-background="new 0 0 100 100" xml:space="preserve">
<g>
	<path fill="#BA8EB7" d="M15.403,63.369c-7.241,0.057-13.3-5.999-13.191-13.416c0.1-6.854,5.626-13.03,13.232-13.02
		c7.511,0.009,13.289,6.074,13.21,13.367C28.573,57.827,22.372,63.463,15.403,63.369z"/>
	<g>
		<path fill="#AF2E2E" d="M9.012,57.01c0,0-0.016,0.401,0.376,0.401c0.487,0,4.524-0.005,4.524-0.005l0.007-3.707
			c0,0-0.064-0.611,0.529-0.611h1.877c0.701,0,0.658,0.611,0.658,0.611l-0.008,3.695c0,0,3.827,0,4.428,0
			c0.497,0,0.475-0.499,0.475-0.499v-6.834l-6.24-5.551l-6.625,5.551v6.949H9.012z"/>
		<path fill="#493126" d="M6.572,49.544c0,0,0.563,1.037,1.789,0l7.331-6.202l6.873,6.163c1.42,1.024,1.952,0,1.952,0l-8.825-7.994
			L6.572,49.544z"/>
		<polygon fill="#AF2E2E" points="22.399,43.328 20.631,43.328 20.638,45.472 22.399,46.965 		"/>
	</g>
	<path fill="#ED5B21" d="M45.932,28.876c-7.376,0.058-13.548-6.111-13.437-13.666c0.102-6.982,5.731-13.273,13.479-13.263
		c7.652,0.009,13.537,6.187,13.457,13.616C59.348,23.232,53.031,28.972,45.932,28.876z"/>
	<g>
		<path fill="#FFFFFF" d="M45.918,7.682c1.691,0,3.382,0,5.073,0c0.636,0,0.767,0.093,0.936,0.721
			c0.447,1.665,0.891,3.33,1.323,4.999c0.074,0.286,0.163,0.446,0.51,0.425c0.398-0.024,0.688,0.275,0.691,0.676
			c0.01,1.592,0.012,3.183-0.001,4.775c-0.003,0.423-0.314,0.694-0.775,0.669c-0.343-0.018-0.421,0.101-0.407,0.421
			c0.025,0.571-0.003,1.144,0.011,1.716c0.007,0.278-0.065,0.405-0.375,0.395c-0.633-0.021-1.268-0.015-1.902-0.002
			c-0.273,0.006-0.375-0.086-0.368-0.367c0.016-0.621-0.004-1.244,0.01-1.865c0.005-0.228-0.059-0.294-0.291-0.294
			c-2.959,0.008-5.919,0.008-8.878,0c-0.252-0.001-0.315,0.081-0.309,0.319c0.015,0.609-0.006,1.219,0.01,1.828
			c0.007,0.266-0.064,0.385-0.35,0.379c-0.646-0.014-1.293-0.012-1.94-0.001c-0.262,0.005-0.347-0.098-0.342-0.354
			c0.013-0.621-0.002-1.243,0.008-1.865c0.003-0.208-0.026-0.307-0.277-0.308c-0.697-0.003-0.91-0.233-0.91-0.919
			c-0.001-1.43-0.001-2.86,0-4.29c0-0.672,0.205-0.9,0.874-0.919c0.195-0.005,0.255-0.086,0.298-0.248
			c0.449-1.715,0.904-3.429,1.352-5.145c0.162-0.618,0.317-0.747,0.955-0.747C42.536,7.682,44.227,7.682,45.918,7.682z"/>
		<path fill="#ED5B21" d="M46.816,13.614c0.05-0.372,0.157-0.73,0.335-1.058c0.088-0.163,0.059-0.266-0.051-0.395
			c-0.534-0.626-1.821-0.616-2.34,0.021c-0.111,0.137-0.16,0.262-0.057,0.434c0.154,0.258,0.233,0.548,0.28,0.843
			c0.017,0.109,0.154,0.299-0.104,0.295c-0.166-0.002-0.414,0.131-0.451-0.211c-0.022-0.207-0.094-0.408-0.187-0.602
			c-0.377-0.784-0.925-1.096-1.872-1.045c-0.803,0.043-1.339,0.469-1.601,1.273c-0.012,0.035-0.026,0.07-0.04,0.104
			c-0.067,0.16,0.002,0.435-0.195,0.469c-0.284,0.05-0.6,0.083-0.874-0.082c-0.225-0.135-0.33-0.348-0.264-0.605
			c0.359-1.394,0.718-2.788,1.096-4.176c0.116-0.427,0.34-0.552,0.851-0.553c1.891-0.003,3.782-0.001,5.672-0.001
			c1.169,0,2.339-0.002,3.508,0.001c0.498,0.001,0.712,0.144,0.841,0.62c0.36,1.329,0.711,2.66,1.05,3.995
			c0.126,0.495-0.122,0.781-0.632,0.824c-0.383,0.032-0.6-0.024-0.705-0.487c-0.226-0.997-0.902-1.431-1.955-1.382
			c-0.897,0.042-1.501,0.591-1.696,1.541c-0.022,0.109-0.057,0.216-0.085,0.323c-0.132,0.052-0.269,0.024-0.403,0.024
			C46.829,13.785,46.785,13.723,46.816,13.614z"/>
		<path fill="#F7E21C" d="M39.893,15.755c0.649,0.004,1.137,0.509,1.129,1.168c-0.007,0.657-0.498,1.142-1.159,1.146
			c-0.637,0.004-1.159-0.519-1.154-1.156C38.714,16.237,39.211,15.751,39.893,15.755z"/>
		<path fill="#F7E21C" d="M53.114,16.901c0.005,0.674-0.492,1.17-1.169,1.168c-0.633-0.002-1.146-0.525-1.145-1.168
			c0.001-0.632,0.52-1.143,1.165-1.146C52.622,15.752,53.109,16.237,53.114,16.901z"/>
		<path fill="#FFFFFF" d="M42.556,8.814c0.786,0.004,1.385,0.611,1.376,1.395c-0.009,0.769-0.648,1.391-1.413,1.374
			c-0.756-0.017-1.362-0.636-1.358-1.389C41.166,9.409,41.771,8.81,42.556,8.814z"/>
		<path fill="#FFFFFF" d="M50.659,10.221c-0.016,0.775-0.655,1.39-1.417,1.362c-0.769-0.028-1.371-0.668-1.352-1.439
			c0.019-0.76,0.663-1.351,1.447-1.329C50.104,8.836,50.676,9.444,50.659,10.221z"/>
		<path fill="#FFFFFF" d="M44.721,10.139c0.003-0.704,0.522-1.236,1.21-1.239c0.689-0.004,1.251,0.553,1.263,1.25
			c0.012,0.678-0.563,1.229-1.275,1.223C45.217,11.367,44.718,10.853,44.721,10.139z"/>
	</g>
	<path fill="#439152" d="M16.749,34.61C9.022,34.671,2.556,28.208,2.671,20.293C2.778,12.978,8.675,6.388,16.792,6.398
		c8.016,0.01,14.182,6.482,14.098,14.265C30.803,28.697,24.186,34.71,16.749,34.61z"/>
	<g>
		<g>
			<g>
				<path fill="#702E40" d="M20.479,15.963c0.621-0.208,1.154-0.573,1.752-0.831c0.05-0.021,0.098-0.032,0.144-0.036l-0.053-0.14
					l-2.761-1.479l-0.098-0.052l0.977,2.556C20.453,15.975,20.464,15.968,20.479,15.963z"/>
			</g>
			<polygon fill="#FFFFFF" points="16.891,14.573 19.73,16.095 22.372,15.09 19.514,13.558 16.872,14.563 			"/>
			<path fill="#F4EBE6" d="M20.126,15.526c-0.324,0.123-0.661,0.204-1.001,0.244l0.605,0.325l2.642-1.004l-0.843-0.452
				C21.128,15.022,20.651,15.327,20.126,15.526z"/>
			<g>
				<path fill="#F23130" d="M19.73,16.095L24.029,27.4c0,0,0.171,0.227,1.418-0.247c1.247-0.474,1.224-0.757,1.224-0.757
					L22.372,15.09c0,0-0.362-0.103-1.401,0.292C19.933,15.777,19.73,16.095,19.73,16.095z"/>
				
					<rect x="23.986" y="23.4" transform="matrix(0.3553 0.9348 -0.9348 0.3553 39.0273 -6.9581)" fill="#702E40" width="1.143" height="2.826"/>
				
					<rect x="23.547" y="21.499" transform="matrix(0.3553 0.9347 -0.9347 0.3553 36.7815 -7.507)" fill="#FFA91B" width="0.572" height="2.826"/>
			</g>
			<g>
				<polygon fill="#00A59B" points="16.871,14.563 16.891,14.573 16.872,14.563 				"/>
				<polygon fill="#702E40" points="20.751,24.708 24.029,27.4 19.73,16.095 16.969,14.615 16.97,14.615 16.969,14.615 
					16.871,14.563 				"/>
			</g>
		</g>
		<g>
			<g>
				<g>
					<g>
						<polygon fill="#00A59B" points="17.671,23.479 19.778,27.161 19.778,15.066 17.723,12.702 17.723,12.702 17.723,12.702 
							17.65,12.618 						"/>
					</g>
					<polygon fill="#FFFFFF" points="14.838,12.777 16.952,15.209 19.778,15.209 17.65,12.761 14.824,12.761 					"/>
					<path fill="#F4EBE6" d="M17.523,14.818c-0.347,0-0.69-0.044-1.022-0.128l0.451,0.519h2.826l-0.628-0.722
						C18.639,14.702,18.086,14.818,17.523,14.818z"/>
					<g>
						<path fill="#183A4A" d="M16.952,15.209v12.095c0,0,0.079,0.273,1.413,0.273s1.413-0.273,1.413-0.273V15.209
							c0,0-0.302-0.225-1.413-0.225C17.253,14.984,16.952,15.209,16.952,15.209z"/>
						<rect x="16.952" y="24.503" fill="#FF5443" width="2.826" height="1.143"/>
						<rect x="16.952" y="22.751" fill="#FFA91B" width="2.826" height="0.572"/>
					</g>
					<g>
						<path fill="#00A59B" d="M14.824,12.761l0.014,0.016L14.824,12.761z"/>
						<polygon fill="#00A59B" points="14.845,23.622 16.952,27.304 16.952,15.209 14.897,12.845 14.897,12.845 14.897,12.845 
							14.824,12.761 						"/>
					</g>
				</g>
				<g>
					<g>
						<polygon fill="#FFC52D" points="14.131,23.479 16.237,27.161 16.237,15.066 14.182,12.702 14.182,12.702 14.182,12.702 
							14.11,12.618 						"/>
					</g>
					<polygon fill="#FFFFFF" points="11.298,12.777 13.411,15.209 16.237,15.209 14.11,12.761 11.284,12.761 					"/>
					<path fill="#F4EBE6" d="M13.983,14.818c-0.347,0-0.69-0.044-1.022-0.128l0.451,0.519h2.826l-0.628-0.722
						C15.098,14.702,14.545,14.818,13.983,14.818z"/>
					<g>
						<path fill="#50212D" d="M13.411,15.209v12.095c0,0,0.08,0.273,1.413,0.273c1.334,0,1.413-0.273,1.413-0.273V15.209
							c0,0-0.302-0.225-1.413-0.225C13.713,14.984,13.411,15.209,13.411,15.209z"/>
						<rect x="13.411" y="19.375" fill="#FF5443" width="2.826" height="6.741"/>
						<rect x="13.411" y="17.623" fill="#FFA91B" width="2.826" height="0.572"/>
						<rect x="13.411" y="16.458" fill="#FFA91B" width="2.826" height="0.572"/>
					</g>
					<g>
						<polygon fill="#00A59B" points="11.283,12.761 11.298,12.777 11.284,12.761 						"/>
						<polygon fill="#FFC52D" points="11.304,23.622 13.411,27.304 13.411,15.209 11.356,12.845 11.356,12.845 11.356,12.845 
							11.283,12.761 						"/>
					</g>
				</g>
				<g>
					<g>
						<polygon fill="#702E40" points="10.854,23.479 12.961,27.161 12.961,15.066 10.906,12.702 10.906,12.702 10.906,12.702 
							10.833,12.618 						"/>
					</g>
					<polygon fill="#FFFFFF" points="8.021,12.777 10.134,15.209 12.961,15.209 10.833,12.761 8.007,12.761 					"/>
					<path fill="#F4EBE6" d="M10.706,14.818c-0.347,0-0.69-0.044-1.022-0.128l0.451,0.518h2.826l-0.628-0.722
						C11.822,14.702,11.268,14.818,10.706,14.818z"/>
					<g>
						<path fill="#00B4BA" d="M10.134,15.209v12.095c0,0,0.079,0.273,1.413,0.273s1.413-0.273,1.413-0.273V15.209
							c0,0-0.302-0.225-1.413-0.225C10.436,14.984,10.134,15.209,10.134,15.209z"/>
						<rect x="10.134" y="24.1" fill="#FFA91B" width="2.826" height="2.015"/>
						<rect x="10.134" y="16.555" fill="#FFA91B" width="2.826" height="2.917"/>
					</g>
					<g>
						<polygon fill="#00A59B" points="8.006,12.761 8.021,12.777 8.007,12.761 						"/>
						<polygon fill="#183A4A" points="8.028,23.622 10.134,27.304 10.134,15.209 8.079,12.845 8.079,12.845 8.079,12.845 
							8.006,12.761 						"/>
					</g>
				</g>
			</g>
			<circle fill="#00A59B" cx="18.394" cy="20.032" r="1.037"/>
		</g>
	</g>
</g>
<g>
	<g>
		<g>
			<g>
				<g>
					
						<rect x="70.96" y="68.033" transform="matrix(0.6667 -0.7453 0.7453 0.6667 -27.2031 77.8017)" fill="#A5A5AA" width="4.855" height="2.566"/>
					
						<rect x="71.644" y="69.77" transform="matrix(0.6667 -0.7453 0.7453 0.6667 -27.6375 79.1585)" fill="#A5A5AA" width="6.092" height="1.422"/>
				</g>
				<path fill="#A5A5AA" d="M96.705,85.109c1.066,0.953,1.178,2.566,0.252,3.601l-1.678,1.876c-0.927,1.036-2.541,1.103-3.607,0.15
					L73.027,74.058c-1.066-0.953-0.079-1.582,0.847-2.618l1.678-1.876c0.926-1.035,1.442-2.086,2.508-1.133L96.705,85.109z"/>
			</g>
			<path fill="#A5A5AA" d="M37.118,38.862c-8.701,9.727-7.869,24.667,1.858,33.367c9.727,8.701,24.667,7.869,33.367-1.858
				c8.701-9.727,7.869-24.666-1.858-33.367C60.758,28.303,45.819,29.135,37.118,38.862z M69.31,67.657
				c-7.202,8.052-19.568,8.741-27.62,1.539c-8.052-7.202-8.74-19.568-1.538-27.62c7.202-8.052,19.568-8.74,27.62-1.538
				C75.823,47.24,76.512,59.605,69.31,67.657z"/>
		</g>
		<g opacity="0.5">
			<defs>
				<path id="SVGID_1_" opacity="0.5" d="M75.995,37.741c0,0-7.819,33.884-42.505,30.275c0,0-11.228-11.629-0.401-31.478
					C45.921,22.503,66.973,26.714,75.995,37.741z"/>
			</defs>
			<clipPath id="SVGID_2_">
				<use xlink:href="#SVGID_1_"  overflow="visible"/>
			</clipPath>
			<g clip-path="url(#SVGID_2_)">
				<g>
					<g>
						<linearGradient id="SVGID_3_" gradientUnits="userSpaceOnUse" x1="50.0246" y1="24.3141" x2="69.4722" y2="61.6052">
							<stop  offset="0" style="stop-color:#CFD1D2"/>
							<stop  offset="1" style="stop-color:#231F20;stop-opacity:0"/>
						</linearGradient>
						<polygon fill="url(#SVGID_3_)" points="76.694,68.342 72.787,72.71 70.478,70.645 74.385,66.277 						"/>
						<linearGradient id="SVGID_4_" gradientUnits="userSpaceOnUse" x1="50.6847" y1="23.9715" x2="70.1318" y2="61.2618">
							<stop  offset="0" style="stop-color:#CFD1D2"/>
							<stop  offset="1" style="stop-color:#231F20;stop-opacity:0"/>
						</linearGradient>
						<polygon fill="url(#SVGID_4_)" points="78.25,68.732 73.346,74.213 72.067,73.068 76.97,67.587 						"/>
					</g>
					<linearGradient id="SVGID_5_" gradientUnits="userSpaceOnUse" x1="55.8633" y1="21.2675" x2="75.3114" y2="58.5596">
						<stop  offset="0" style="stop-color:#CFD1D2"/>
						<stop  offset="1" style="stop-color:#231F20;stop-opacity:0"/>
					</linearGradient>
					<path fill="url(#SVGID_5_)" d="M101.735,88.559c1.286,1.151,1.422,3.097,0.304,4.347l-2.025,2.265
						c-1.119,1.251-3.068,1.331-4.354,0.181L73.15,75.217c-1.286-1.151-0.096-1.91,1.023-3.16l2.026-2.265
						c1.118-1.25,1.741-2.518,3.027-1.368L101.735,88.559z"/>
				</g>
				<linearGradient id="SVGID_6_" gradientUnits="userSpaceOnUse" x1="23.1095" y1="-6.0179" x2="60.899" y2="66.4444">
					<stop  offset="0" style="stop-color:#414042"/>
					<stop  offset="0.3949" style="stop-color:#434244;stop-opacity:0.6051"/>
					<stop  offset="0.5372" style="stop-color:#4A494B;stop-opacity:0.4628"/>
					<stop  offset="0.6386" style="stop-color:#555456;stop-opacity:0.3614"/>
					<stop  offset="0.7206" style="stop-color:#666567;stop-opacity:0.2794"/>
					<stop  offset="0.7909" style="stop-color:#7C7B7D;stop-opacity:0.2091"/>
					<stop  offset="0.8531" style="stop-color:#979798;stop-opacity:0.1469"/>
					<stop  offset="0.9093" style="stop-color:#B7B7B8;stop-opacity:0.0907"/>
					<stop  offset="0.9593" style="stop-color:#DCDBDC;stop-opacity:0.0407"/>
					<stop  offset="1" style="stop-color:#FFFFFF;stop-opacity:0"/>
				</linearGradient>
				<path fill="url(#SVGID_6_)" d="M37.118,38.862c-8.701,9.727-7.869,24.667,1.858,33.367c9.727,8.701,24.667,7.869,33.367-1.858
					c8.701-9.727,7.869-24.666-1.858-33.367C60.758,28.303,45.819,29.135,37.118,38.862z M69.31,67.657
					c-7.202,8.052-19.568,8.741-27.62,1.539c-8.052-7.202-8.74-19.568-1.538-27.62c7.202-8.052,19.568-8.74,27.62-1.538
					C75.823,47.24,76.512,59.605,69.31,67.657z"/>
			</g>
		</g>
	</g>
</g>
</svg>
